<svg xmlns="http://www.w3.org/2000/svg" viewBox="0 0 250.8 38.7"><g fill="#C8A14F"><path d="M56.5 34.7c-.5.7-1.1 1.2-1.9 1.5-.8.3-1.9.5-3.2.5h-3.1c-1.8 0-3.1-.3-3.8-.9-.8-.6-1.2-1.7-1.2-3.2V6.3 1.8h-7.6v.4c1 0 1.9.3 2.7.9.8.6 1.1 1.6 1.1 3.1v27.1c0 1.3-.3 2.2-1 2.9-.7.7-1.5 1-2.3 1h-.5v.4H57l1.4-5.9H58c-.5 1.4-1 2.3-1.5 3zM175.8 34.3c-.6 0-1.2.2-1.6.6-.4.4-.6 1-.6 1.6 0 .6.2 1.1.6 1.6.4.4.9.6 1.6.6.6 0 1.2-.2 1.6-.6.4-.4.7-.9.7-1.6 0-.7-.2-1.2-.7-1.6-.4-.4-1-.6-1.6-.6zM99.3 1.8c-.6 0-1.1 0-1.5-.1-.4-.1-.8-.2-1.1-.3-.3-.1-.6-.3-.8-.5-.2-.2-.4-.5-.7-.9h-.4v3.2h14v30.2c0 1.4-.4 2.4-1.1 3-.7.6-1.6.9-2.7.9v.4h11.5v-.4c-2.6-.1-3.9-1.4-3.9-4V3.2h7.2c1.7 0 3.2.3 4.4 1 1.2.7 1.9 2.2 2.1 4.6h.4v-7H99.3zM92.3 35.6c-.5-.7-1-1.9-1.6-3.5L79.9 1.3h-2.6l-10.2 31c-.5 1.6-1.2 2.9-1.9 3.7-.7.8-1.7 1.3-2.9 1.4v.4h8.4v-.4c-.9 0-1.6-.2-2.1-.5s-.8-1-.8-2c0-.6.2-1.5.4-2.4l.1-.2c0-.1 0-.2.1-.2l1.9-5.8 2.2-6.9 4.7-14.9s9 25.4 10 29.3v.2c.2.6.2 1.1.2 1.5 0 1-.3 1.6-1 1.9-.7.2-1.6.3-2.8.3v.4h11.7v-.4c-.7-.1-1.3-.2-1.8-.4-.2-.5-.7-1-1.2-1.7zM163 6c-1.8-1.7-3.8-3-6.1-3.9-1.9-.8-3.9-1.2-6-1.3v1.1c1.6.1 3.4.5 5.2 1.3 2.2.9 4.2 2.7 5.9 5.4 1.7 2.7 2.5 6.4 2.5 11.2 0 3.3-.4 6.1-1.3 8.4-.9 2.3-2 4.1-3.5 5.5-1.4 1.3-3 2.3-4.7 2.9-1.4.5-2.7.7-4.1.8v1.1c3.1-.1 6-1 8.6-2.5 2.9-1.7 5.2-4 6.8-6.9 1.7-2.9 2.5-6 2.5-9.4 0-2.8-.5-5.4-1.5-7.7-1.1-2.3-2.5-4.3-4.3-6zM136.5 6.2c-1.8 1.7-3.2 3.7-4.2 6.1-1 2.3-1.5 4.8-1.5 7.4 0 3.4.8 6.6 2.5 9.5 1.7 2.9 4 5.2 6.9 6.9 2.6 1.5 5.3 2.3 8.3 2.5v-1.1c-1.4-.1-2.8-.4-4.1-.9-1.7-.6-3.3-1.7-4.8-3.1-1.4-1.5-2.6-3.3-3.4-5.6-.8-2.3-1.2-5-1.2-8.1 0-3.5.5-6.5 1.5-8.9 1-2.4 2.3-4.2 3.8-5.6 1.5-1.3 3.1-2.2 4.7-2.7 1.2-.4 2.3-.6 3.4-.7V.8c-2 .1-4 .6-5.9 1.3-2.2 1-4.2 2.3-6 4.1zM185.7 10.5c-1.7 3-2.6 6.3-2.6 9.8 0 2.3.4 4.6 1.2 6.8.8 2.2 2.1 4.2 3.7 5.9 1.6 1.8 3.6 3.2 5.9 4.2 2.1.9 4.5 1.4 7 1.5v-1.5c-1.6-.1-3.1-.5-4.4-1.1-1.8-.8-3.4-2-4.7-3.6-1.4-1.6-2.4-3.5-3.1-5.6-.7-2.2-1.1-4.5-1.1-7 0-2.6.4-5 1.1-7.2.7-2.2 1.8-4.1 3.1-5.7 1.3-1.6 2.9-2.8 4.7-3.7 1.4-.7 2.9-1.1 4.5-1.2V.8c-2.9.2-5.7 1-8.2 2.6-3.1 1.7-5.4 4.1-7.1 7.1zM214.1 2.3c-.2.2-.6.3-1.3.3-.3 0-.8 0-1.2-.1l-2.5-.7c-2.1-.5-4-.8-5.8-.9V2c1.2.1 2.5.3 3.9.8 1.7.6 3.3 1.5 4.6 2.7 1.3 1.2 2.2 2.7 2.5 4.5h.4l.3-8.6h-.4c-.1.3-.2.7-.5.9zM203.2 37.2v1.4c2-.1 3.7-.5 5.2-1.1 1.8-.8 3.8-2 5.9-3.7v-1.4c-1.8 1.7-3.7 3-5.9 3.7-1.8.7-3.6 1-5.2 1.1zM249.7 2.5v-.7h-13.2v1.3h8.2l-10.5 14.4L219.9 37v.7h14.3v-1.3h-9.4zM221.9 5.2c.5-.7 1.3-1.3 2.1-1.6.9-.3 2.1-.5 3.5-.5h6.7V1.8h-13.9v6.6h.4c.2-1.4.6-2.4 1.2-3.2zM250.4 31.7c-.5 1.1-1 1.9-1.5 2.5-.5.6-1.3 1.1-2.3 1.5-1.1.4-2.6.6-4.5.6h-5.6v1.3h12.6l1.7-6h-.4zM29.9 2.5v-.7H16.5v1.3h8.4L0 37v.7h14.2v-1.3H5zM2 5.2c.5-.7 1.3-1.3 2.1-1.6.9-.3 2.1-.5 3.5-.5h6.5V1.8H.4v6.6h.4C1.1 7 1.5 6 2 5.2zM29.1 34.3c-.5.6-1.2 1.1-2.3 1.5-1.1.4-2.6.6-4.5.6h-5.7v1.3h12.7l1.7-6h-.4c-.6 1.1-1 2-1.5 2.6z"/></g></svg>