<?xml version="1.0" encoding="utf-8"?>
<!-- Generator: Adobe Illustrator 18.1.1, SVG Export Plug-In . SVG Version: 6.00 Build 0)  -->
<svg version="1.1" id="Layer_1" xmlns="http://www.w3.org/2000/svg" xmlns:xlink="http://www.w3.org/1999/xlink" x="0px" y="0px"
	 viewBox="0 0 250.8 38.7" enable-background="new 0 0 250.8 38.7" xml:space="preserve">
<g>
	<path fill="#C8A14F" d="M56.5,34.7c-0.5,0.7-1.1,1.2-1.9,1.5c-0.8,0.3-1.9,0.5-3.2,0.5h-3.1c-1.8,0-3.1-0.3-3.8-0.9
		c-0.8-0.6-1.2-1.7-1.2-3.2V6.3c0-1.5,0-4.5,0-4.5h-7.6v0.4c1,0,1.9,0.3,2.7,0.9c0.8,0.6,1.1,1.6,1.1,3.1v27.1c0,1.3-0.3,2.2-1,2.9
		c-0.7,0.7-1.5,1-2.3,1h-0.5v0.4H57l1.4-5.9H58C57.5,33.1,57,34,56.5,34.7z"/>
	<path fill="#C8A14F" d="M175.8,34.3c-0.6,0-1.2,0.2-1.6,0.6c-0.4,0.4-0.6,1-0.6,1.6c0,0.6,0.2,1.1,0.6,1.6c0.4,0.4,0.9,0.6,1.6,0.6
		c0.6,0,1.2-0.2,1.6-0.6c0.4-0.4,0.7-0.9,0.7-1.6c0-0.7-0.2-1.2-0.7-1.6C177,34.5,176.4,34.3,175.8,34.3z"/>
	<path fill="#C8A14F" d="M99.3,1.8c-0.6,0-1.1,0-1.5-0.1c-0.4-0.1-0.8-0.2-1.1-0.3c-0.3-0.1-0.6-0.3-0.8-0.5
		c-0.2-0.2-0.4-0.5-0.7-0.9h-0.4v3.2h14v0h0v30.2c0,1.4-0.4,2.4-1.1,3c-0.7,0.6-1.6,0.9-2.7,0.9v0.4h11.5v-0.4
		c-2.6-0.1-3.9-1.4-3.9-4V3.2h7.2c1.7,0,3.2,0.3,4.4,1c1.2,0.7,1.9,2.2,2.1,4.6h0.4V2V1.8l-4,0H99.3z"/>
	<path fill="#C8A14F" d="M92.3,35.6c-0.5-0.7-1-1.9-1.6-3.5L79.9,1.3h-2.6l-10.2,31c-0.5,1.6-1.2,2.9-1.9,3.7
		c-0.7,0.8-1.7,1.3-2.9,1.4v0.4h8.4v-0.4c-0.9,0-1.6-0.2-2.1-0.5c-0.5-0.3-0.8-1-0.8-2c0-0.6,0.2-1.5,0.4-2.4l0,0l0.1-0.2
		c0-0.1,0-0.2,0.1-0.2l1.9-5.8l2.2-6.9l4.7-14.9c0,0,9,25.4,10,29.3c0,0,0,0,0,0.1c0,0,0,0,0,0.1c0,0,0,0,0,0
		c0.2,0.6,0.2,1.1,0.2,1.5c0,1-0.3,1.6-1,1.9c-0.7,0.2-1.6,0.3-2.8,0.3v0.4h11.7v-0.4c-0.7-0.1-1.3-0.2-1.8-0.4
		C93.3,36.8,92.8,36.3,92.3,35.6z"/>
	<path fill="#C8A14F" d="M163,6c-1.8-1.7-3.8-3-6.1-3.9c-1.9-0.8-3.9-1.2-6-1.3v1.1c1.6,0.1,3.4,0.5,5.2,1.3
		c2.2,0.9,4.2,2.7,5.9,5.4c1.7,2.7,2.5,6.4,2.5,11.2c0,3.3-0.4,6.1-1.3,8.4c-0.9,2.3-2,4.1-3.5,5.5c-1.4,1.3-3,2.3-4.7,2.9
		c-1.4,0.5-2.7,0.7-4.1,0.8v1.1c3.1-0.1,6-1,8.6-2.5c2.9-1.7,5.2-4,6.8-6.9c1.7-2.9,2.5-6,2.5-9.4c0-2.8-0.5-5.4-1.5-7.7
		C166.2,9.7,164.8,7.7,163,6z"/>
	<path fill="#C8A14F" d="M136.5,6.2c-1.8,1.7-3.2,3.7-4.2,6.1c-1,2.3-1.5,4.8-1.5,7.4c0,3.4,0.8,6.6,2.5,9.5c1.7,2.9,4,5.2,6.9,6.9
		c2.6,1.5,5.3,2.3,8.3,2.5v-1.1c-1.4-0.1-2.8-0.4-4.1-0.9c-1.7-0.6-3.3-1.7-4.8-3.1c-1.4-1.5-2.6-3.3-3.4-5.6
		c-0.8-2.3-1.2-5-1.2-8.1c0-3.5,0.5-6.5,1.5-8.9c1-2.4,2.3-4.2,3.8-5.6c1.5-1.3,3.1-2.2,4.7-2.7c1.2-0.4,2.3-0.6,3.4-0.7V0.8
		c-2,0.1-4,0.6-5.9,1.3C140.3,3.1,138.3,4.4,136.5,6.2z"/>
	<path fill="#C8A14F" d="M185.7,10.5c-1.7,3-2.6,6.3-2.6,9.8c0,2.3,0.4,4.6,1.2,6.8c0.8,2.2,2.1,4.2,3.7,5.9
		c1.6,1.8,3.6,3.2,5.9,4.2c2.1,0.9,4.5,1.4,7,1.5v-1.5c-1.6-0.1-3.1-0.5-4.4-1.1c-1.8-0.8-3.4-2-4.7-3.6c-1.4-1.6-2.4-3.5-3.1-5.6
		c-0.7-2.2-1.1-4.5-1.1-7c0-2.6,0.4-5,1.1-7.2c0.7-2.2,1.8-4.1,3.1-5.7c1.3-1.6,2.9-2.8,4.7-3.7c1.4-0.7,2.9-1.1,4.5-1.2V0.8
		c-2.9,0.2-5.7,1-8.2,2.6C189.7,5.1,187.4,7.5,185.7,10.5z"/>
	<path fill="#C8A14F" d="M214.1,2.3c-0.2,0.2-0.6,0.3-1.3,0.3c-0.3,0-0.8,0-1.2-0.1l-2.5-0.7c-2.1-0.5-4-0.8-5.8-0.9v1.1
		c1.2,0.1,2.5,0.3,3.9,0.8c1.7,0.6,3.3,1.5,4.6,2.7c1.3,1.2,2.2,2.7,2.5,4.5h0.4l0.3-8.6h-0.4C214.5,1.7,214.4,2.1,214.1,2.3z"/>
	<path fill="#C8A14F" d="M203.2,37.2v1.4c2-0.1,3.7-0.5,5.2-1.1c1.8-0.8,3.8-2,5.9-3.7v-1.4c-1.8,1.7-3.7,3-5.9,3.7
		C206.6,36.8,204.8,37.1,203.2,37.2z"/>
	<polygon fill="#C8A14F" points="249.7,2.5 249.7,1.8 236.5,1.8 236.5,3.1 244.7,3.1 234.2,17.5 219.9,37 219.9,37.7 234.2,37.7 
		234.2,36.4 224.8,36.4 	"/>
	<path fill="#C8A14F" d="M221.9,5.2c0.5-0.7,1.3-1.3,2.1-1.6c0.9-0.3,2.1-0.5,3.5-0.5h6.7V1.8h-13.9v6.6h0.4
		C220.9,7,221.3,6,221.9,5.2z"/>
	<path fill="#C8A14F" d="M250.4,31.7c-0.5,1.1-1,1.9-1.5,2.5c-0.5,0.6-1.3,1.1-2.3,1.5c-1.1,0.4-2.6,0.6-4.5,0.6h-5.6v1.3h12.6
		l1.7-6H250.4z"/>
	<polygon fill="#C8A14F" points="29.9,2.5 29.9,1.8 16.5,1.8 16.5,3.1 24.9,3.1 0,37 0,37.7 14.2,37.7 14.2,36.4 5,36.4 	"/>
	<path fill="#C8A14F" d="M2,5.2c0.5-0.7,1.3-1.3,2.1-1.6C5,3.3,6.2,3.1,7.6,3.1h6.5V1.8H0.4v6.6h0.4C1.1,7,1.5,6,2,5.2z"/>
	<path fill="#C8A14F" d="M29.1,34.3c-0.5,0.6-1.2,1.1-2.3,1.5c-1.1,0.4-2.6,0.6-4.5,0.6h-5.7v1.3h12.7l1.7-6h-0.4
		C30,32.8,29.6,33.7,29.1,34.3z"/>
</g>
</svg>
